<?xml version="1.0" encoding="UTF-8" standalone="no"?>
<svg width="116px" height="116px" viewBox="0 0 116 116" version="1.1" xmlns="http://www.w3.org/2000/svg" xmlns:xlink="http://www.w3.org/1999/xlink">
    <!-- Generator: Sketch 46.2 (44496) - http://www.bohemiancoding.com/sketch -->
    <title>Group 24</title>
    <desc>Created with Sketch.</desc>
    <defs>
        <circle id="path-1" cx="50" cy="50" r="50"></circle>
        <filter x="-12.0%" y="-12.0%" width="124.0%" height="124.0%" filterUnits="objectBoundingBox" id="filter-2">
            <feOffset dx="0" dy="0" in="SourceAlpha" result="shadowOffsetOuter1"></feOffset>
            <feGaussianBlur stdDeviation="4" in="shadowOffsetOuter1" result="shadowBlurOuter1"></feGaussianBlur>
            <feColorMatrix values="0 0 0 0 0   0 0 0 0 0   0 0 0 0 0  0 0 0 0.0165307971 0" type="matrix" in="shadowBlurOuter1"></feColorMatrix>
        </filter>
    </defs>
    <g id="Page-1" stroke="none" stroke-width="1" fill="none" fill-rule="evenodd">
        <g id="Merchants_page" transform="translate(-872.000000, -969.000000)">
            <g id="Group-24" transform="translate(880.000000, 977.000000)">
                <g id="Oval-Copy">
                    <use fill="black" fill-opacity="1" filter="url(#filter-2)" xlink:href="#path-1"></use>
                    <use fill="#FFFFFF" fill-rule="evenodd" xlink:href="#path-1"></use>
                </g>
                <g id="Group-19" transform="translate(30.000000, 34.000000)" fill-rule="nonzero" fill="#0084FF">
                    <path d="M26.232,0 L13.768,0 C6.164,0 0,5.82 0,12.996 L0,12.996 C0,18.232 3.28,22.74 8,24.8 L8,29.536 C8,30.992 8.576,31.776 9.452,31.776 C10.1510705,31.7088015 10.80404,31.3971891 11.296,30.896 L16.896,25.992 L26.232,25.992 C33.832,25.992 40,20.172 40,12.996 L40,12.996 C40,5.82 33.836,0 26.232,0 Z M26.232,23.6 L16,23.6 L15.32,24.192 L10.4,28.492 L10.4,23.228 L8.96,22.6 C4.976,20.86 2.4,17.088 2.4,12.996 C2.4,7.152 7.5,2.4 13.768,2.4 L26.232,2.4 C32.5,2.4 37.6,7.152 37.6,12.996 C37.6,18.84 32.5,23.592 26.232,23.592 L26.232,23.6 Z" id="Shape"></path>
                    <path d="M20,11.388 C18.7302792,11.3836009 17.6971938,12.4089512 17.6920502,13.6786692 C17.6869067,14.9483871 18.7116512,15.9820736 19.981366,15.9879615 C21.2510807,15.9938494 22.2853677,14.969711 22.292,13.7 C22.2877221,12.4326724 21.2672426,11.4032882 20,11.388 L20,11.388 Z" id="Shape"></path>
                    <path d="M11.908,11.388 C10.9774977,11.3751227 10.1309266,11.924228 9.76327686,12.7791163 C9.3956271,13.6340046 9.57935452,14.6261958 10.2287362,15.292757 C10.878118,15.9593181 11.8651748,16.1688843 12.7293694,15.8236768 C13.5935639,15.4784694 14.164582,14.6465214 14.176,13.716 C14.1856142,13.1060494 13.9516776,12.5174305 13.5259913,12.0804827 C13.1003051,11.6435349 12.5179937,11.3943119 11.908,11.388 L11.908,11.388 Z" id="Shape"></path>
                    <path d="M28.132,11.388 C27.1974822,11.3750188 26.3480308,11.9288278 25.9828712,12.7891478 C25.6177116,13.6494678 25.8094615,14.6452108 26.4680021,15.3083972 C27.1265427,15.9715836 28.1209132,16.1703286 28.9837789,15.8112259 C29.8466446,15.4521232 30.4064115,14.6065859 30.4,13.672 C30.3956937,12.4185956 29.3853432,11.4011173 28.132,11.388 Z" id="Shape"></path>
                </g>
            </g>
        </g>
    </g>
</svg>