<?xml version="1.0" encoding="utf-8"?>
<!-- Generator: Adobe Illustrator 16.0.0, SVG Export Plug-In . SVG Version: 6.00 Build 0)  -->
<!DOCTYPE svg PUBLIC "-//W3C//DTD SVG 1.1//EN" "http://www.w3.org/Graphics/SVG/1.1/DTD/svg11.dtd">
<svg version="1.1" id="Layer_1" xmlns="http://www.w3.org/2000/svg" xmlns:xlink="http://www.w3.org/1999/xlink" x="0px" y="0px"
	 width="441px" height="916px" viewBox="0 0 441 916" enable-background="new 0 0 441 916" xml:space="preserve">
<filter  height="106.4%" width="113.9%" id="filter-2" filterUnits="objectBoundingBox" x="-7.0%" y="-2.3%">
	<feOffset  dy="8" dx="0" in="SourceAlpha" result="shadowOffsetOuter1"></feOffset>
	<feGaussianBlur  in="shadowOffsetOuter1" stdDeviation="8" result="shadowBlurOuter1"></feGaussianBlur>
	<feComposite  in="shadowBlurOuter1" in2="SourceAlpha" operator="out" result="shadowBlurOuter1"></feComposite>
	<feColorMatrix  type="matrix" values="0 0 0 0 0   0 0 0 0 0   0 0 0 0 0  0 0 0 0.342674366 0" in="shadowBlurOuter1">
		</feColorMatrix>
</filter>
<title>iphone/portrait/light</title>
<desc>Created with Sketch.</desc>
<g id="Symbols">
	<g id="iphone_x2F_portrait_x2F_light">
		<g id="shadow">
			<g filter="url(#filter-2)">
				<path id="path-1_2_" d="M76.866,22.006h286c32.033,0,58,25.79,58,57.605v758.791c0,31.814-25.967,57.604-58,57.604h-286
					c-32.033,0-58-25.789-58-57.604V79.611C18.866,47.796,44.833,22.006,76.866,22.006z"/>
			</g>
			<g>
				<path id="path-1_1_" fill="#FFFFFF" fill-opacity="0" d="M76.866,22.006h286c32.033,0,58,25.79,58,57.605v758.791
					c0,31.814-25.967,57.604-58,57.604h-286c-32.033,0-58-25.789-58-57.604V79.611C18.866,47.796,44.833,22.006,76.866,22.006z"/>
			</g>
		</g>
		<path id="white" fill="#323031" d="M70.867,22.006c-32.033,0-58.001,26.188-58.001,58.469v757.063
			c0,32.292,25.976,58.469,58.001,58.469h297.998c32.032,0,58.001-26.187,58.001-58.469V80.474
			c0-32.291-25.977-58.469-58.001-58.469H70.867z"/>
		<g id="base-light-1">
			<g>
				<path id="path-3" fill="#676767" d="M220.866,873.006c-18.778,0-34-15.222-34-34c0-18.777,15.222-34,34-34
					c18.777,0,34,15.223,34,34C254.866,857.784,239.644,873.006,220.866,873.006z M221.366,869.006c16.845,0,30.5-13.431,30.5-30
					c0-16.568-13.655-30-30.5-30c-16.846,0-30.5,13.432-30.5,30C190.866,855.575,204.521,869.006,221.366,869.006z M186.859,70.006
					h68.017c1.651,0,2.992,1.345,2.992,3c0,1.663-1.336,3-2.992,3h-68.017c-1.652,0-2.992-1.344-2.992-3
					C183.866,71.343,185.202,70.006,186.859,70.006z M220.866,50.006c-2.209,0-4-1.791-4-4s1.791-4,4-4s4,1.791,4,4
					S223.075,50.006,220.866,50.006z M152.866,80.006c-3.866,0-7-3.134-7-7s3.134-7,7-7s7,3.134,7,7S156.733,80.006,152.866,80.006z
					"/>
			</g>
			<g>
				<path id="path-3_1_" fill="#FFFFFF" fill-opacity="0.75" d="M220.866,873.006c-18.778,0-34-15.222-34-34
					c0-18.777,15.222-34,34-34c18.777,0,34,15.223,34,34C254.866,857.784,239.644,873.006,220.866,873.006z M221.366,869.006
					c16.845,0,30.5-13.431,30.5-30c0-16.568-13.655-30-30.5-30c-16.846,0-30.5,13.432-30.5,30
					C190.866,855.575,204.521,869.006,221.366,869.006z M186.859,70.006h68.017c1.651,0,2.992,1.345,2.992,3
					c0,1.663-1.336,3-2.992,3h-68.017c-1.652,0-2.992-1.344-2.992-3C183.866,71.343,185.202,70.006,186.859,70.006z M220.866,50.006
					c-2.209,0-4-1.791-4-4s1.791-4,4-4s4,1.791,4,4S223.075,50.006,220.866,50.006z M152.866,80.006c-3.866,0-7-3.134-7-7
					s3.134-7,7-7s7,3.134,7,7S156.733,80.006,152.866,80.006z"/>
			</g>
		</g>
		<polygon id="img" fill="#FFFFFF" points="31.866,121.006 31.866,788.006 406.866,788.006 406.866,121.006 		"/>
	</g>
</g>
</svg>
