<?xml version="1.0" encoding="UTF-8" standalone="no"?>
<svg width="116px" height="116px" viewBox="0 0 116 116" version="1.1" xmlns="http://www.w3.org/2000/svg" xmlns:xlink="http://www.w3.org/1999/xlink">
    <!-- Generator: Sketch 46.2 (44496) - http://www.bohemiancoding.com/sketch -->
    <title>Group 20</title>
    <desc>Created with Sketch.</desc>
    <defs>
        <circle id="path-1" cx="50" cy="50" r="50"></circle>
        <filter x="-12.0%" y="-12.0%" width="124.0%" height="124.0%" filterUnits="objectBoundingBox" id="filter-2">
            <feOffset dx="0" dy="0" in="SourceAlpha" result="shadowOffsetOuter1"></feOffset>
            <feGaussianBlur stdDeviation="4" in="shadowOffsetOuter1" result="shadowBlurOuter1"></feGaussianBlur>
            <feColorMatrix values="0 0 0 0 0   0 0 0 0 0   0 0 0 0 0  0 0 0 0.0165307971 0" type="matrix" in="shadowBlurOuter1"></feColorMatrix>
        </filter>
    </defs>
    <g id="Page-1" stroke="none" stroke-width="1" fill="none" fill-rule="evenodd">
        <g id="Merchants_page" transform="translate(-345.000000, -969.000000)">
            <g id="Group-20" transform="translate(353.000000, 977.000000)">
                <g id="Oval-Copy-6">
                    <use fill="black" fill-opacity="1" filter="url(#filter-2)" xlink:href="#path-1"></use>
                    <use fill="#FFFFFF" fill-rule="evenodd" xlink:href="#path-1"></use>
                </g>
                <path d="M41.7937301,35 C39.2864098,35 36.7766212,35.9561374 34.865232,37.8783571 C31.0424988,41.7228054 31.0473473,47.9781055 34.865232,51.8251568 L49.5624384,66.6340732 C50.051261,67.1219756 50.9331691,67.1219756 51.4219917,66.6340732 C56.3252037,61.7031221 61.229782,56.7839181 66.1329499,51.8529671 C69.9556834,48.008541 69.9556834,41.7506111 66.1329499,37.9061673 C62.3102165,34.061719 56.098732,34.0616656 52.2759545,37.9061673 L50.5128434,39.686021 L48.7222278,37.8783571 C46.810795,35.9561418 44.3010504,35 41.7937301,35 L41.7937301,35 Z M46.8489223,39.7694516 L49.5761907,42.5087576 C50.0650132,42.9966422 50.9469214,42.9966422 51.435744,42.5087576 L54.1492601,39.7972618 C56.9664912,36.9640463 61.4424573,36.9640908 64.2596444,39.7972618 C67.0768315,42.6304373 67.0768315,47.114832 64.2596444,49.948003 C59.6671367,54.5665764 55.0916871,59.1927721 50.4990912,63.8113588 L36.738538,49.9340757 C33.9230258,47.0970779 33.9075986,42.6026226 36.7248739,39.7694516 C39.7226035,37.0332692 44.0798681,36.9168846 46.8489223,39.7694516 Z" id="Shape" fill="#0084FF" fill-rule="nonzero"></path>
            </g>
        </g>
    </g>
</svg>