<?xml version="1.0" encoding="UTF-8" standalone="no"?>
<svg width="116px" height="116px" viewBox="0 0 116 116" version="1.1" xmlns="http://www.w3.org/2000/svg" xmlns:xlink="http://www.w3.org/1999/xlink">
    <!-- Generator: Sketch 46.2 (44496) - http://www.bohemiancoding.com/sketch -->
    <title>Group 22</title>
    <desc>Created with Sketch.</desc>
    <defs>
        <circle id="path-1" cx="50" cy="50" r="50"></circle>
        <filter x="-12.0%" y="-12.0%" width="124.0%" height="124.0%" filterUnits="objectBoundingBox" id="filter-2">
            <feOffset dx="0" dy="0" in="SourceAlpha" result="shadowOffsetOuter1"></feOffset>
            <feGaussianBlur stdDeviation="4" in="shadowOffsetOuter1" result="shadowBlurOuter1"></feGaussianBlur>
            <feColorMatrix values="0 0 0 0 0   0 0 0 0 0   0 0 0 0 0  0 0 0 0.0165307971 0" type="matrix" in="shadowBlurOuter1"></feColorMatrix>
        </filter>
    </defs>
    <g id="Page-1" stroke="none" stroke-width="1" fill="none" fill-rule="evenodd">
        <g id="Merchants_page" transform="translate(-613.000000, -969.000000)">
            <g id="Group-22" transform="translate(621.000000, 977.000000)">
                <g id="Oval">
                    <use fill="black" fill-opacity="1" filter="url(#filter-2)" xlink:href="#path-1"></use>
                    <use fill="#FFFFFF" fill-rule="evenodd" xlink:href="#path-1"></use>
                </g>
                <g id="Group" transform="translate(37.000000, 30.000000)" fill-rule="nonzero" fill="#0084FF">
                    <path d="M5.86956522,40 L19.3043478,40 C22.4347826,40 24.9565217,37.4782609 24.9565217,34.3478261 L24.9565217,5.65217391 C24.9565217,2.52173913 22.4347826,0 19.3043478,0 L5.86956522,0 C2.73913043,0 0.217391304,2.52173913 0.217391304,5.65217391 L0.217391304,34.3478261 C0.217391304,37.4782609 2.7826087,40 5.86956522,40 Z M19.3478261,37.3913043 L5.86956522,37.3913043 C4.17391304,37.3913043 2.82608696,36.0434783 2.82608696,34.3478261 L2.82608696,30.2608696 L22.3478261,30.2608696 L22.3478261,34.3478261 C22.3913043,36.0434783 21,37.3913043 19.3478261,37.3913043 Z M2.82608696,27.6521739 L2.82608696,9.43478261 L22.3478261,9.43478261 L22.3478261,27.6521739 L2.82608696,27.6521739 Z M5.86956522,2.60869565 L19.3043478,2.60869565 C21,2.60869565 22.3478261,3.95652174 22.3478261,5.65217391 L22.3478261,6.82608696 L2.82608696,6.82608696 L2.82608696,5.65217391 C2.82608696,3.95652174 4.2173913,2.60869565 5.86956522,2.60869565 Z" id="Shape"></path>
                    <circle id="Oval" cx="12.6086957" cy="33.8695652" r="2.60869565"></circle>
                </g>
            </g>
        </g>
    </g>
</svg>